<?xml version="1.0" standalone="no"?>
<!DOCTYPE svg PUBLIC "-//W3C//DTD SVG 20010904//EN"
 "http://www.w3.org/TR/2001/REC-SVG-20010904/DTD/svg10.dtd">
<svg version="1.0" xmlns="http://www.w3.org/2000/svg"
 width="400.000000pt" height="400.000000pt" viewBox="0 0 400.000000 400.000000"
 preserveAspectRatio="xMidYMid meet">
<metadata>
Created by potrace 1.11, written by Peter Selinger 2001-2013
</metadata>
<g transform="translate(0.000000,400.000000) scale(0.100000,-0.100000)"
fill="#000000" stroke="none">
<path d="M1125 3828 c-3 -7 -4 -150 -3 -318 l3 -305 75 0 75 0 0 315 0 315
-73 3 c-52 2 -74 -1 -77 -10z"/>
<path d="M1445 3828 c-3 -7 -4 -150 -3 -318 l3 -305 75 0 75 0 0 315 0 315
-73 3 c-52 2 -74 -1 -77 -10z"/>
<path d="M1765 3828 c-3 -7 -4 -150 -3 -318 l3 -305 75 0 75 0 0 315 0 315
-73 3 c-52 2 -74 -1 -77 -10z"/>
<path d="M2085 3828 c-3 -7 -4 -150 -3 -318 l3 -305 75 0 75 0 0 315 0 315
-73 3 c-52 2 -74 -1 -77 -10z"/>
<path d="M2405 3828 c-3 -7 -4 -150 -3 -318 l3 -305 75 0 75 0 0 315 0 315
-73 3 c-52 2 -74 -1 -77 -10z"/>
<path d="M2725 3828 c-3 -7 -4 -150 -3 -318 l3 -305 75 0 75 0 0 315 0 315
-73 3 c-52 2 -74 -1 -77 -10z"/>
<path d="M1014 3029 c-11 -6 -28 -23 -37 -39 -16 -26 -17 -109 -17 -990 0
-880 1 -964 17 -990 9 -16 27 -33 40 -39 34 -15 1932 -15 1966 0 13 6 31 23
40 39 16 26 17 110 17 990 0 880 -1 964 -17 990 -9 16 -27 33 -40 39 -32 15
-1939 14 -1969 0z m1567 -399 c17 -10 19 -23 19 -166 0 -151 -1 -156 -25 -179
-31 -32 -75 -32 -111 -2 -26 23 -27 27 -27 120 0 76 -3 97 -13 97 -8 0 -201 0
-429 0 -228 0 -419 0 -424 0 -6 0 -10 -43 -10 -97 0 -93 -2 -99 -26 -120 -35
-30 -79 -30 -110 2 -24 23 -25 28 -25 175 0 107 4 155 13 165 10 12 105 14
580 14 370 1 575 -3 588 -9z m-828 -361 c30 -14 44 -44 40 -86 l-3 -33 209 0
209 0 -2 33 c-4 62 36 104 89 93 11 -3 26 -5 32 -5 7 -1 19 -14 27 -30 12 -22
15 -62 13 -176 -2 -142 -3 -147 -26 -167 -19 -15 -34 -18 -64 -14 -55 8 -70
30 -69 99 l1 27 -210 0 -210 0 4 -27 c8 -58 -28 -103 -83 -103 -66 0 -78 33
-76 210 1 80 5 151 10 158 18 29 70 39 109 21z m-219 -401 c24 -22 26 -29 27
-120 l1 -98 438 0 438 0 0 96 c0 86 2 98 23 120 31 33 81 33 114 -1 24 -23 25
-28 25 -175 0 -118 -3 -155 -14 -166 -22 -21 -1150 -21 -1172 0 -11 11 -14 48
-14 166 0 147 1 152 25 175 31 32 75 32 109 3z"/>
<path d="M164 2867 c-3 -8 -4 -43 -2 -78 l3 -64 315 0 315 0 0 75 0 75 -313 3
c-257 2 -313 0 -318 -11z"/>
<path d="M3204 2867 c-3 -8 -4 -43 -2 -78 l3 -64 315 0 315 0 0 75 0 75 -313
3 c-257 2 -313 0 -318 -11z"/>
<path d="M164 2547 c-3 -8 -4 -43 -2 -78 l3 -64 315 0 315 0 0 75 0 75 -313 3
c-257 2 -313 0 -318 -11z"/>
<path d="M3204 2547 c-3 -8 -4 -43 -2 -78 l3 -64 315 0 315 0 0 75 0 75 -313
3 c-257 2 -313 0 -318 -11z"/>
<path d="M164 2227 c-3 -8 -4 -43 -2 -78 l3 -64 315 0 315 0 0 75 0 75 -313 3
c-257 2 -313 0 -318 -11z"/>
<path d="M3204 2227 c-3 -8 -4 -43 -2 -78 l3 -64 315 0 315 0 0 75 0 75 -313
3 c-257 2 -313 0 -318 -11z"/>
<path d="M164 1907 c-3 -8 -4 -43 -2 -78 l3 -64 315 0 315 0 0 75 0 75 -313 3
c-257 2 -313 0 -318 -11z"/>
<path d="M3204 1907 c-3 -8 -4 -43 -2 -78 l3 -64 315 0 315 0 0 75 0 75 -313
3 c-257 2 -313 0 -318 -11z"/>
<path d="M164 1587 c-3 -8 -4 -43 -2 -78 l3 -64 315 0 315 0 0 75 0 75 -313 3
c-257 2 -313 0 -318 -11z"/>
<path d="M3204 1587 c-3 -8 -4 -43 -2 -78 l3 -64 315 0 315 0 0 75 0 75 -313
3 c-257 2 -313 0 -318 -11z"/>
<path d="M164 1267 c-3 -8 -4 -43 -2 -78 l3 -64 315 0 315 0 0 75 0 75 -313 3
c-257 2 -313 0 -318 -11z"/>
<path d="M3204 1267 c-3 -8 -4 -43 -2 -78 l3 -64 315 0 315 0 0 75 0 75 -313
3 c-257 2 -313 0 -318 -11z"/>
<path d="M1125 788 c-3 -7 -4 -150 -3 -318 l3 -305 75 0 75 0 0 315 0 315 -73
3 c-52 2 -74 -1 -77 -10z"/>
<path d="M1445 788 c-3 -7 -4 -150 -3 -318 l3 -305 75 0 75 0 0 315 0 315 -73
3 c-52 2 -74 -1 -77 -10z"/>
<path d="M1765 788 c-3 -7 -4 -150 -3 -318 l3 -305 75 0 75 0 0 315 0 315 -73
3 c-52 2 -74 -1 -77 -10z"/>
<path d="M2085 788 c-3 -7 -4 -150 -3 -318 l3 -305 75 0 75 0 0 315 0 315 -73
3 c-52 2 -74 -1 -77 -10z"/>
<path d="M2405 788 c-3 -7 -4 -150 -3 -318 l3 -305 75 0 75 0 0 315 0 315 -73
3 c-52 2 -74 -1 -77 -10z"/>
<path d="M2725 788 c-3 -7 -4 -150 -3 -318 l3 -305 75 0 75 0 0 315 0 315 -73
3 c-52 2 -74 -1 -77 -10z"/>
</g>
</svg>
